<svg width="44" height="41" viewBox="0 0 44 41" fill="none" xmlns="http://www.w3.org/2000/svg">
<g clip-path="url(#clip0_2_147)">
<path d="M14.9155 35.0216L17.9892 39.8451C18.2396 40.2309 18.7959 40.2447 19.0602 39.8726L22.3703 35.1181C22.8988 34.3601 23.7611 33.8778 24.693 33.8502L30.2423 33.616C33.3439 33.4781 36.0699 31.2594 36.5149 28.2137C36.5845 27.69 36.6262 27.125 36.6262 26.4911V12.9304C36.6262 11.8003 36.3202 10.684 35.6943 9.73311C34.4843 7.91399 31.7861 5.66765 25.8752 6.14999L7.68327 6.09487C7.68327 6.09487 0.2563 5.61252 0.701361 15.6039L0.687453 26.0087C0.687453 27.5522 1.03516 29.0957 1.84183 30.4049C2.8154 32.0036 4.59565 33.6297 7.79453 33.7124L12.8432 33.8502C13.6916 33.8778 14.4565 34.3188 14.9155 35.0216Z" fill="white"/>
<path d="M8.69865 2.91142C8.6152 3.06302 8.75428 3.25595 8.93509 3.25595L29.9782 3.5867C29.9782 3.5867 36.4455 3.37998 38.8516 9.18188C39.3384 10.3671 39.5192 11.6487 39.5192 12.9304V26.2844C39.5192 26.5462 39.7834 26.7116 40.0199 26.6013C40.8683 26.1879 42.5233 24.8236 43.024 20.3998C43.1214 19.5178 43.1353 18.622 43.1075 17.74L42.6485 6.0811C42.6485 6.0811 42.2313 -0.354725 33.4413 0.058711L15.2077 0.0449298C14.1785 0.0449298 13.1632 0.15518 12.1757 0.444585C10.8544 0.816678 9.2967 1.54708 8.69865 2.91142Z" fill="white"/>
</g>
<defs>
<clipPath id="clip0_2_147">
<rect width="42.4478" height="40.0896" fill="white" transform="translate(0.6875 0.0449219)"/>
</clipPath>
</defs>
</svg>
